<svg xmlns="http://www.w3.org/2000/svg" width="119" height="47" fill="none"><path fill="white" d="m6.145 35.435 4.58 4.58 4.58-4.58-4.58-4.58-4.58 4.58ZM23.7 35.485a6.464 6.464 0 1 0 12.927 0 6.464 6.464 0 0 0-12.927 0Zm10.772 0a4.308 4.308 0 1 1-8.617 0 4.308 4.308 0 0 1 8.617 0Z"/><path fill="white" d="M30.163 37.641a2.156 2.156 0 1 0 0-4.311 2.156 2.156 0 0 0 0 4.311ZM26.941 12.415a1.076 1.076 0 1 0 0-2.153 1.076 1.076 0 0 0 0 2.152Z"/><path fill="white" d="M40.935 14.523a4.285 4.285 0 0 0-2.684-3.976l-8.09-3.27.29-.29 2.075-2.075c.103-.316.156-.654.156-1.001 0-.632-.178-1.217-.494-1.718A3.218 3.218 0 0 0 29.45.676c-.231 0-.46.025-.679.072A3.208 3.208 0 0 0 26.706 0c-.932 0-1.77.394-2.359 1.026l-.031.035-.037.043a19.146 19.146 0 0 0-3.742 6.22 5.022 5.022 0 0 0-4.02-2.012H0V21.83c0 1.067.332 2.058.901 2.872a5.018 5.018 0 0 0 4.124 2.155h3.591L0 35.474l10.772 10.772 8.798-8.798c.31 1.661.998 3.191 1.974 4.49a10.756 10.756 0 0 0 9.007 4.298c5.735-.2 10.35-4.965 10.384-10.703.035-5.738-4.758-10.79-10.69-10.834v-4.352a.42.42 0 0 1 .35-.416l6.799-1.199a4.286 4.286 0 0 0 3.541-4.22v.012ZM29.675 3.198s.025-.022.041-.032a.506.506 0 0 1 .222-.084.478.478 0 0 1 .354.081.55.55 0 0 1 .263.429.54.54 0 0 1-.122.366l-.075.075-.858.86-1.12 1.12-.012.01-.382.381-.244-.097-.76-.306a17.121 17.121 0 0 1 2.69-2.797l.003-.007Zm-19.32 10.108.51-5.828h2.45l-.49 5.612-.191 2.178-.094 1.064-.973-.973-1.28-1.28.066-.779.003.006ZM8.705 7.478 8.3 12.095 3.682 7.478h5.022ZM2.156 9l4.62 4.621-4.62.404V9Zm0 7.187 5.828-.51.78-.066 1.276 1.277.973.973-1.067.093-2.178.191-5.612.491v-2.45Zm8.62 27.022L3.05 35.485l7.725-7.724 7.725 7.724-7.725 7.725Zm8.616-9.88-7.634-7.634a3.368 3.368 0 0 0-2.378-.986H5.028a2.872 2.872 0 0 1-2.872-2.872v-1.045l5.422-.472 2.18-.188 2.466-.216.779-.069 1.28 1.28 3.356 3.357a5.975 5.975 0 0 1 1.75 4.224v4.62h.003Zm19.388 2.155a8.617 8.617 0 0 1-9.24 8.595c-4.314-.304-7.777-3.852-7.983-8.172a8.596 8.596 0 0 1 3.322-7.23 8.53 8.53 0 0 1 5.284-1.812h.082a8.617 8.617 0 0 1 8.535 8.616v.003ZM28.092 20.383v4.527a10.706 10.706 0 0 0-4.743 2.234 10.96 10.96 0 0 0-1.802 1.874v-.275a8.205 8.205 0 0 0-2.403-5.804l-4.614-4.614.068-.78.216-2.465.191-2.18.472-5.422h1.042a2.872 2.872 0 0 1 2.873 2.872v4.668a1.076 1.076 0 1 0 2.152 0v-1.146c0-3.235.907-6.257 2.484-8.829a16.545 16.545 0 0 1 2.037-2.687l.034-.038a.255.255 0 0 1 .041-.04l.016-.016a.533.533 0 0 1 .563-.072c.188.085.316.27.316.488a.54.54 0 0 1-.122.341c-.025.028-.047.053-.075.075-.21.22-.42.441-.617.67a18.628 18.628 0 0 0-1.936 2.6l-.41.694 1.883.764.573.231 2.168.876 8.98 3.626a2.08 2.08 0 0 1 1.298 1.921v.088a2.074 2.074 0 0 1-1.715 2.043l-6.82 1.204a2.608 2.608 0 0 0-2.156 2.57l.006.002Z"/><path fill="white" d="M53.131 24.907a5.235 5.235 0 0 0 .813.228 8.398 8.398 0 0 1-.813-.228Z"/><path fill="white" d="M68.687 12.565a20.496 20.496 0 0 0-1.28 1.627c-.675.95-1.364 1.896-2.049 2.84l-.582.801c-.482.654-.985 1.296-1.436 1.972-.795 1.188-1.636 2.296-2.844 3.09a3.84 3.84 0 0 1-.288.17c-1.332.738-2.922 1.057-4.44.944-1.007-.075-2.024-.35-2.884-.894-.773-.432-1.427-1.08-1.955-1.956l.297-.172 9.186-5.303.162-.094a7.884 7.884 0 0 0-1.257-1.64 6.068 6.068 0 0 0-2.043-1.341c-1.89-.755-3.752-.604-5.579.45-1.774 1.026-2.8 2.522-3.075 4.484a6.618 6.618 0 0 0 .848 4.355c.193.34.41.654.65.941.751.91 1.715 1.587 2.9 2.028.038.015.079.028.116.04.263.091.535.166.814.229.01.003.019.003.025.006 1.283.291 2.731.32 4.214.028.544-.106 1.067-.25 1.561-.429l.044-.015c1.73-.623 3.21-1.796 4.29-3.285l.287-.4.99-1.365.956-1.32c.029-.04.06-.081.088-.122 1.148-1.586 2.246-3.204 3.379-4.8.695-.976 1.449-1.924 2.362-2.706 1.014-.866 2.259-1.87 3.53-2.24-2.754-.247-5.21 2.04-6.99 4.07l.003.007Zm-18.309 7.32c-.213-.86-.272-1.626-.175-2.299.031-.222.081-.438.15-.641.366-1.114 1.073-1.974 2.124-2.578a4.937 4.937 0 0 1 2.059-.65c.735-.067 1.405.018 2.009.259.006.003.015.006.021.01.589.23 1.177.653 1.768 1.254l.031.031-7.152 4.133-.835.482Z"/><path fill="white" d="m66.362 18.346 4.746 6.53h-1.94l-3.766-5.197-.958-1.32-4.245-5.857h1.911l3.292 4.527.957 1.32.003-.003ZM71.393 12.502h1.593v2.275c.629-.864 1.351-1.515 2.171-1.946.82-.432 1.73-.648 2.738-.648 1.758 0 3.26.632 4.511 1.9 1.252 1.266 1.874 2.79 1.874 4.573 0 1.784-.62 3.367-1.858 4.637-1.24 1.27-2.731 1.905-4.484 1.905-.985 0-1.89-.203-2.715-.613-.826-.41-1.574-1.02-2.24-1.83v6.655H71.39V12.508l.003-.006Zm6.37 1.217c-1.376 0-2.537.482-3.479 1.443-.942.963-1.414 2.158-1.414 3.591 0 .939.21 1.784.629 2.535.42.75 1.02 1.345 1.805 1.783.782.438 1.608.66 2.481.66.873 0 1.658-.222 2.412-.663a4.893 4.893 0 0 0 1.8-1.859 5.019 5.019 0 0 0 .006-5 4.796 4.796 0 0 0-4.236-2.487l-.004-.003ZM85.272 7.725h1.593v17.151h-1.593V7.725ZM94.286 12.183c1.905 0 3.485.691 4.74 2.071 1.139 1.258 1.708 2.75 1.708 4.471 0 1.72-.601 3.241-1.805 4.534-1.205 1.292-2.753 1.94-4.643 1.94-1.89 0-3.451-.648-4.656-1.94-1.204-1.293-1.805-2.804-1.805-4.534s.57-3.2 1.708-4.458c1.255-1.39 2.838-2.08 4.753-2.08v-.004Zm-.006 1.558c-1.324 0-2.463.488-3.414 1.468-.95.979-1.426 2.161-1.426 3.547 0 .895.216 1.73.65 2.503a4.635 4.635 0 0 0 1.759 1.793 4.808 4.808 0 0 0 2.43.632c.883 0 1.693-.21 2.432-.632a4.613 4.613 0 0 0 1.758-1.793c.435-.773.65-1.608.65-2.503 0-1.389-.478-2.571-1.432-3.547-.954-.98-2.09-1.468-3.407-1.468ZM101.332 12.502h1.626v1.808c.485-.713.998-1.245 1.537-1.598.538-.354 1.098-.529 1.683-.529.441 0 .91.14 1.411.422l-.829 1.343c-.335-.144-.613-.216-.842-.216-.532 0-1.042.219-1.536.654-.494.434-.87 1.113-1.126 2.03-.197.704-.298 2.13-.298 4.277v4.186h-1.626V12.502Z"/><path fill="white" d="M118.367 12.502V24.88h-1.571v-2.127c-.666.81-1.417 1.42-2.246 1.83-.829.41-1.74.613-2.725.613-1.752 0-3.248-.635-4.487-1.905-1.239-1.27-1.858-2.816-1.858-4.637 0-1.82.626-3.307 1.877-4.574 1.252-1.267 2.757-1.9 4.515-1.9 1.017 0 1.936.217 2.759.649.823.431 1.546 1.079 2.169 1.946v-2.275h1.57l-.003.003Zm-6.364 1.217a4.801 4.801 0 0 0-4.242 2.487 5.013 5.013 0 0 0-.663 2.5c0 .88.222 1.705.669 2.5a4.897 4.897 0 0 0 1.802 1.859 4.691 4.691 0 0 0 2.425.663c.863 0 1.696-.22 2.478-.66a4.613 4.613 0 0 0 1.802-1.784c.419-.75.632-1.595.632-2.534 0-1.433-.473-2.628-1.414-3.592-.942-.96-2.103-1.442-3.482-1.442l-.007.003ZM78.642 7.725c-.763-.013-1.611 0-2.352 0 .093.15.225.41.272.754.072.541-.11.96-.194 1.13.744-.598 1.53-1.287 2.271-1.884h.003ZM59.507 33.702h.93c.531 0 .891.022 1.079.069.266.066.485.2.654.403.169.204.253.46.253.77s-.081.566-.247.77a1.202 1.202 0 0 1-.682.406c-.213.05-.607.076-1.186.076h-.334v2.17h-.467V33.7v.003Zm.467.457v1.583l.791.01c.32 0 .554-.029.7-.088a.743.743 0 0 0 .351-.282.78.78 0 0 0 .129-.435c0-.16-.041-.3-.129-.428a.724.724 0 0 0-.335-.279c-.137-.056-.366-.081-.681-.081h-.826ZM64.657 33.702h2.675v.457h-2.209v1.464h2.19v.457h-2.19v1.833h2.19v.457h-2.656v-4.668ZM69.466 33.702h.929c.52 0 .87.022 1.054.063.279.062.504.2.676.41.172.209.26.466.26.77 0 .252-.06.478-.178.669-.12.194-.291.338-.514.438-.222.1-.528.15-.92.15l1.68 2.168h-.575l-1.68-2.168h-.263v2.168h-.466v-4.668h-.003Zm.466.457v1.586l.804.006c.313 0 .541-.028.691-.087a.717.717 0 0 0 .35-.285.787.787 0 0 0 .126-.438.759.759 0 0 0-.463-.704c-.138-.056-.366-.081-.685-.081h-.823v.003ZM74.7 33.702h.466v2.819c0 .335.007.541.02.626.021.184.077.337.162.463a.928.928 0 0 0 .39.31c.176.084.354.125.53.125a1.043 1.043 0 0 0 .8-.37c.098-.115.166-.256.21-.422.031-.119.047-.363.047-.729v-2.819h.466v2.819c0 .416-.04.754-.122 1.01a1.382 1.382 0 0 1-.488.673c-.244.191-.541.285-.885.285-.376 0-.701-.09-.967-.27a1.306 1.306 0 0 1-.538-.712c-.056-.182-.085-.51-.085-.983v-2.819l-.006-.006Zm1.765-1.345h.682l-.936.976h-.438l.692-.976ZM82.876 34.159v-.457h2.559v.457h-1.042v4.211h-.476v-4.211h-1.041ZM89.63 33.586c.707 0 1.299.235 1.774.707.476.473.714 1.051.714 1.743 0 .691-.238 1.264-.714 1.74a2.365 2.365 0 0 1-1.74.713 2.403 2.403 0 0 1-1.751-.71 2.338 2.338 0 0 1-.714-1.721c0-.447.11-.864.326-1.248.215-.382.513-.683.888-.898.376-.216.78-.326 1.217-.326Zm.019.454c-.344 0-.673.09-.982.269a1.97 1.97 0 0 0-.726.726c-.172.303-.26.644-.26 1.02 0 .553.19 1.023.576 1.404.384.382.848.573 1.389.573a2.01 2.01 0 0 0 1.007-.263c.31-.175.548-.416.723-.722.172-.304.26-.645.26-1.017 0-.373-.088-.704-.26-1.005a1.94 1.94 0 0 0-.729-.72 1.96 1.96 0 0 0-.998-.268v.003ZM94.37 33.702h.466v2.819c0 .335.007.541.02.626.021.184.077.337.162.463a.928.928 0 0 0 .39.31c.176.084.354.125.53.125a1.043 1.043 0 0 0 .8-.37c.097-.115.166-.256.21-.422.031-.119.047-.363.047-.729v-2.819h.466v2.819c0 .416-.04.754-.122 1.01a1.382 1.382 0 0 1-.488.673c-.244.191-.541.285-.885.285-.376 0-.701-.09-.967-.27a1.306 1.306 0 0 1-.538-.712c-.056-.182-.085-.51-.085-.983v-2.819l-.006-.006ZM99.936 33.702h.929c.52 0 .87.022 1.055.063.278.062.503.2.675.41.172.209.26.466.26.77 0 .252-.059.478-.178.669a1.122 1.122 0 0 1-.513.438c-.222.1-.529.15-.92.15l1.68 2.168h-.576l-1.68-2.168h-.263v2.168h-.466v-4.668h-.003Zm.466.457v1.586l.804.006c.313 0 .542-.028.692-.087a.715.715 0 0 0 .35-.285.783.783 0 0 0 .125-.438.762.762 0 0 0-.128-.429.714.714 0 0 0-.335-.275c-.137-.056-.366-.081-.685-.081h-.823v.003ZM104.673 37.5l.397-.238c.278.514.601.77.967.77a.942.942 0 0 0 .441-.11.758.758 0 0 0 .419-.685.784.784 0 0 0-.16-.46c-.147-.206-.412-.456-.8-.747-.388-.294-.632-.507-.726-.639a1.154 1.154 0 0 1-.247-.713 1.057 1.057 0 0 1 .556-.951c.176-.097.37-.144.576-.144.219 0 .426.053.616.163.191.11.395.31.607.6l-.381.288c-.175-.231-.326-.385-.448-.46a.76.76 0 0 0-.403-.112.642.642 0 0 0-.463.172.563.563 0 0 0-.179.422c0 .1.022.2.063.294.044.094.119.2.231.31.063.06.263.216.604.466.404.297.682.563.832.798.151.232.226.466.226.7 0 .339-.129.633-.385.883-.257.25-.569.376-.939.376-.284 0-.541-.075-.769-.229-.232-.15-.445-.403-.639-.76l.004.006Z"/></svg>
